<svg width="127" height="221" viewBox="0 0 127 221" fill="none" xmlns="http://www.w3.org/2000/svg">
<path d="M20.7743 93.9955L11.8652 105.632L9.50153 114.905V129.632L11.6833 137.996L17.6833 141.814H23.3197L26.9561 138.177L32.047 128.359L32.7743 126.177L21.1379 94.541V94.3592L20.7743 93.9955ZM53.6834 77.9955L53.3197 78.9046L53.1379 79.2683C53.1379 79.2683 53.2591 79.2683 53.5015 79.2683L53.8652 79.0864V78.3592L53.6834 77.9955ZM24.7743 40.7228L22.7743 42.541L20.4106 51.6319V61.2683L22.9561 76.3592L23.3197 77.0864L26.5924 70.9046L29.1379 61.2683V51.6319L26.5924 42.541L24.7743 40.7228ZM24.5924 31.4501H24.7743C25.9864 31.4501 26.8955 31.7531 27.5015 32.3592L33.1379 37.8137C33.3803 38.1774 33.6833 38.7834 34.047 39.6319L36.7743 49.9955C36.7743 50.1167 36.8349 50.2986 36.9561 50.541C37.0773 50.7834 37.1379 50.9652 37.1379 51.0864V61.6319C37.1379 61.7531 37.0773 61.9349 36.9561 62.1774L36.7743 62.541L34.047 73.2683C34.047 73.6319 33.9864 73.8743 33.8652 73.9955L28.2288 84.3592C28.2288 84.6016 28.1076 84.844 27.8652 85.0864L26.5924 86.541L28.4106 91.8137L36.7743 114.541L37.5015 113.268L42.7743 87.2683V87.0864L45.6833 76.3592C45.6833 76.1167 45.8046 75.8743 46.047 75.6319L48.5924 70.3592C49.1985 68.9046 50.4106 68.1774 52.2288 68.1774H54.9561C56.653 68.1774 57.8046 68.9046 58.4106 70.3592L61.3197 75.6319C61.5621 76.1167 61.6833 76.7228 61.6833 77.4501V82.541C61.6833 83.7531 61.5015 84.6016 61.1379 85.0864L58.4106 89.8137C57.8046 91.147 56.653 91.8137 54.9561 91.8137C53.8652 91.8137 52.8955 91.4501 52.047 90.7228C51.3197 89.9955 50.9561 89.0864 50.9561 87.9955V87.0864L50.5924 88.7228L45.1379 115.086V115.632L41.3197 126.177L42.047 128.359L46.9561 137.814L52.7743 141.45L53.8652 139.632V135.268C53.8652 134.177 54.2288 133.268 54.9561 132.541C55.6833 131.693 56.5924 131.268 57.6833 131.268C58.7743 131.268 59.6834 131.693 60.4106 132.541C61.2591 133.268 61.6833 134.177 61.6833 135.268V140.541C61.6833 141.268 61.5621 141.874 61.3197 142.359L58.4106 147.632C57.8046 149.086 56.653 149.814 54.9561 149.814H52.2288C51.3803 149.814 50.653 149.632 50.047 149.268L41.8652 143.814C41.744 143.693 41.6227 143.571 41.5015 143.45C40.8955 142.965 40.5318 142.602 40.4106 142.359L37.1379 135.996L33.8652 142.359C33.6227 142.844 33.3803 143.208 33.1379 143.45L27.5015 148.541C26.653 149.389 25.744 149.814 24.7743 149.814H16.4106C15.6834 149.814 15.0167 149.632 14.4106 149.268L6.2288 143.814C5.25911 143.329 4.65305 142.602 4.41062 141.632L1.68335 131.086V113.268L4.41062 102.905L5.31971 101.268L17.8652 85.2683L15.5015 78.541V77.9955L12.5924 62.1774V49.9955L15.5015 39.6319C15.8652 38.7834 16.1682 38.1774 16.4106 37.8137L22.047 32.3592C22.653 31.7531 23.5015 31.4501 24.5924 31.4501Z" fill="white"/>
<path d="M83.7743 118.256L74.8652 129.892L72.5015 139.165V153.892L74.6833 162.256L80.6833 166.074H86.3197L89.9561 162.438L95.047 152.62L95.7743 150.438L84.1379 118.801V118.62L83.7743 118.256ZM116.683 102.256L116.32 103.165L116.138 103.529C116.138 103.529 116.259 103.529 116.502 103.529L116.865 103.347V102.62L116.683 102.256ZM87.7743 64.9833L85.7743 66.8015L83.4106 75.8924V85.5288L85.9561 100.62L86.3197 101.347L89.5924 95.1651L92.1379 85.5288V75.8924L89.5924 66.8015L87.7743 64.9833ZM87.5924 55.7106H87.7743C88.9864 55.7106 89.8955 56.0136 90.5015 56.6197L96.1379 62.0742C96.3803 62.4378 96.6833 63.0439 97.047 63.8924L99.7743 74.256C99.7743 74.3772 99.8349 74.5591 99.9561 74.8015C100.077 75.0439 100.138 75.2257 100.138 75.3469V85.8924C100.138 86.0136 100.077 86.1954 99.9561 86.4379L99.7743 86.8015L97.047 97.5288C97.047 97.8924 96.9864 98.1348 96.8652 98.256L91.2288 108.62C91.2288 108.862 91.1076 109.105 90.8652 109.347L89.5924 110.801L91.4106 116.074L99.7743 138.801L100.502 137.529L105.774 111.529V111.347L108.683 100.62C108.683 100.377 108.805 100.135 109.047 99.8924L111.592 94.6197C112.199 93.1651 113.411 92.4379 115.229 92.4379H117.956C119.653 92.4379 120.805 93.1651 121.411 94.6197L124.32 99.8924C124.562 100.377 124.683 100.983 124.683 101.711V106.801C124.683 108.014 124.502 108.862 124.138 109.347L121.411 114.074C120.805 115.408 119.653 116.074 117.956 116.074C116.865 116.074 115.895 115.711 115.047 114.983C114.32 114.256 113.956 113.347 113.956 112.256V111.347L113.592 112.983L108.138 139.347V139.892L104.32 150.438L105.047 152.62L109.956 162.074L115.774 165.711L116.865 163.892V159.529C116.865 158.438 117.229 157.529 117.956 156.801C118.683 155.953 119.592 155.529 120.683 155.529C121.774 155.529 122.683 155.953 123.411 156.801C124.259 157.529 124.683 158.438 124.683 159.529V164.801C124.683 165.529 124.562 166.135 124.32 166.62L121.411 171.892C120.805 173.347 119.653 174.074 117.956 174.074H115.229C114.38 174.074 113.653 173.892 113.047 173.529L104.865 168.074C104.744 167.953 104.623 167.832 104.502 167.711C103.895 167.226 103.532 166.862 103.411 166.62L100.138 160.256L96.8652 166.62C96.6227 167.105 96.3803 167.468 96.1379 167.711L90.5015 172.801C89.653 173.65 88.744 174.074 87.7743 174.074H79.4106C78.6834 174.074 78.0167 173.892 77.4106 173.529L69.2288 168.074C68.2591 167.589 67.653 166.862 67.4106 165.892L64.6833 155.347V137.529L67.4106 127.165L68.3197 125.529L80.8652 109.529L78.5015 102.801V102.256L75.5924 86.4379V74.256L78.5015 63.8924C78.8652 63.0439 79.1682 62.4378 79.4106 62.0742L85.047 56.6197C85.653 56.0136 86.5015 55.7106 87.5924 55.7106Z" fill="white"/>
</svg>
